<svg xmlns="http://www.w3.org/2000/svg" version="1.1" xmlns:xlink="http://www.w3.org/1999/xlink" xmlns:svgjs="http://svgjs.dev/svgjs" width="2000" height="479" viewBox="0 0 2000 479"><g transform="matrix(1,0,0,1,-1.2120585751310955,0.8249814074135884)"><svg viewBox="0 0 396 95" data-background-color="#ecfef2" preserveAspectRatio="xMidYMid meet" height="479" width="2000" xmlns="http://www.w3.org/2000/svg" xmlns:xlink="http://www.w3.org/1999/xlink"><g id="tight-bounds" transform="matrix(1,0,0,1,0.23998759787596669,-0.16361844197137998)"><svg viewBox="0 0 395.5199999999999 95.32723688394275" height="95.32723688394275" width="395.5199999999999"><g><svg viewBox="0 0 395.5199999999999 95.32723688394275" height="95.32723688394275" width="395.5199999999999"><g><svg viewBox="0 0 395.5199999999999 95.32723688394275" height="95.32723688394275" width="395.5199999999999"><g><svg viewBox="0 0 395.5199999999999 95.32723688394275" height="95.32723688394275" width="395.5199999999999"><g><svg viewBox="0 0 395.5199999999999 95.32723688394275" height="95.32723688394275" width="395.5199999999999"><g transform="matrix(1,0,0,1,0,0)"><svg width="395.5199999999999" viewBox="2.5999999046325684 -37 157.239990234375 37.900001525878906" height="95.32723688394275" data-palette-color="#164b2f"><path d="M16.05 0.9L16.05 0.9Q12.6 0.9 10.08-0.3 7.55-1.5 5.9-3.53 4.25-5.55 3.43-8 2.6-10.45 2.6-12.9L2.6-12.9 2.6-13.8Q2.6-16.35 3.43-18.8 4.25-21.25 5.93-23.23 7.6-25.2 10.1-26.4 12.6-27.6 15.95-27.6L15.95-27.6Q19.3-27.6 21.98-26.35 24.65-25.1 26.28-22.83 27.9-20.55 28.1-17.45L28.1-17.45 23.5-17.45Q23.15-19.95 21.2-21.63 19.25-23.3 15.95-23.3L15.95-23.3Q13.1-23.3 11.2-22 9.3-20.7 8.35-18.45 7.4-16.2 7.4-13.35L7.4-13.35Q7.4-10.6 8.35-8.33 9.3-6.05 11.23-4.73 13.15-3.4 16.05-3.4L16.05-3.4Q18.3-3.4 19.95-4.2 21.6-5 22.6-6.35 23.6-7.7 23.8-9.4L23.8-9.4 28.4-9.4Q28.25-6.25 26.58-3.95 24.9-1.65 22.18-0.38 19.45 0.9 16.05 0.9ZM40.5 0L35.6 0 35.6-36.5 40.5-36.5 40.5 0ZM56.2 0L39.5 0 39.5-4.4 56.2-4.4 56.2 0ZM68.2 0L63.4 0 63.4-26.7 68.2-26.7 68.2 0ZM68.2-22.9L59.3-22.9 59.3-26.7 68.2-26.7 68.2-22.9ZM64.75-31L64.75-31Q63.15-31 62.37-31.85 61.6-32.7 61.6-34L61.6-34Q61.6-35.3 62.37-36.15 63.15-37 64.75-37L64.75-37Q66.34-37 67.12-36.15 67.9-35.3 67.9-34L67.9-34Q67.9-32.7 67.12-31.85 66.34-31 64.75-31ZM82.29 0L77.49 0 77.49-26.7 81.29-26.7 81.29-15.25 80.69-15.25Q80.69-19.2 81.77-21.93 82.84-24.65 85.04-26.08 87.24-27.5 90.59-27.5L90.59-27.5 90.79-27.5Q95.84-27.5 98.27-24.35 100.69-21.2 100.69-15.25L100.69-15.25 100.69 0 95.89 0 95.89-16.25Q95.89-19.35 94.14-21.23 92.39-23.1 89.34-23.1L89.34-23.1Q86.19-23.1 84.24-21.15 82.29-19.2 82.29-15.95L82.29-15.95 82.29 0ZM115.59 0L110.79 0 110.79-26.7 115.59-26.7 115.59 0ZM115.59-22.9L106.69-22.9 106.69-26.7 115.59-26.7 115.59-22.9ZM112.14-31L112.14-31Q110.54-31 109.77-31.85 108.99-32.7 108.99-34L108.99-34Q108.99-35.3 109.77-36.15 110.54-37 112.14-37L112.14-37Q113.74-37 114.52-36.15 115.29-35.3 115.29-34L115.29-34Q115.29-32.7 114.52-31.85 113.74-31 112.14-31ZM136.34 0.9L136.34 0.9Q132.89 0.9 130.36-0.3 127.84-1.5 126.19-3.53 124.54-5.55 123.71-8 122.89-10.45 122.89-12.9L122.89-12.9 122.89-13.8Q122.89-16.35 123.71-18.8 124.54-21.25 126.21-23.23 127.89-25.2 130.39-26.4 132.89-27.6 136.24-27.6L136.24-27.6Q139.59-27.6 142.26-26.35 144.94-25.1 146.56-22.83 148.19-20.55 148.39-17.45L148.39-17.45 143.79-17.45Q143.44-19.95 141.49-21.63 139.54-23.3 136.24-23.3L136.24-23.3Q133.39-23.3 131.49-22 129.59-20.7 128.64-18.45 127.69-16.2 127.69-13.35L127.69-13.35Q127.69-10.6 128.64-8.33 129.59-6.05 131.51-4.73 133.44-3.4 136.34-3.4L136.34-3.4Q138.59-3.4 140.24-4.2 141.89-5 142.89-6.35 143.89-7.7 144.09-9.4L144.09-9.4 148.69-9.4Q148.54-6.25 146.86-3.95 145.19-1.65 142.46-0.38 139.74 0.9 136.34 0.9ZM159.84 0L154.04 0 154.04-6.1 159.84-6.1 159.84 0Z" opacity="1" transform="matrix(1,0,0,1,0,0)" fill="#164b2f" class="undefined-text-0" data-fill-palette-color="primary" id="text-0"></path></svg></g></svg></g></svg></g></svg></g><g></g></svg></g><defs></defs></svg><rect width="395.5199999999999" height="95.32723688394275" fill="none" stroke="none" visibility="hidden"></rect></g></svg></g></svg>